<?xml version="1.0" encoding="utf-8"?>
<!-- Generator: Adobe Illustrator 21.0.2, SVG Export Plug-In . SVG Version: 6.00 Build 0)  -->
<svg version="1.1" id="Layer_1" xmlns="http://www.w3.org/2000/svg" xmlns:xlink="http://www.w3.org/1999/xlink" x="0px" y="0px"
	 viewBox="0 0 222 222" style="enable-background:new 0 0 222 222;" xml:space="preserve">
<style type="text/css">
	.st0{fill:#FFC107;}
	.st1{fill:#0CBC69;}
	.st2{fill:#8197DA;}
	.st3{fill:#AE4ACC;}
	.st4{fill:#FF5D5D;}
	.st5{fill:#FF9853;}
</style>
<g>
	<g>
		<path class="st0" d="M6.3,74C2.2,85.6,0,98,0,111h222c0-13-2.2-25.4-6.3-37H6.3z"/>
	</g>
	<g>
		<path class="st1" d="M215.7,148c4.1-11.6,6.3-24,6.3-37H0c0,13,2.2,25.4,6.3,37H215.7z"/>
	</g>
	<g>
		<path class="st2" d="M28.3,185h165.5c9.6-10.7,17.1-23.2,21.9-37H6.3C11.2,161.8,18.7,174.3,28.3,185z"/>
	</g>
	<g>
		<path class="st3" d="M193.7,185H28.3c20.3,22.7,49.9,37,82.7,37S173.4,207.7,193.7,185z"/>
	</g>
	<g>
		<path class="st4" d="M28.3,37h165.5C173.4,14.3,143.9,0,111,0S48.6,14.3,28.3,37z"/>
	</g>
	<g>
		<path class="st5" d="M6.3,74h209.4c-4.9-13.8-12.4-26.3-21.9-37H28.3C18.7,47.7,11.2,60.2,6.3,74z"/>
	</g>
</g>
</svg>
